<svg width="28" height="28" viewBox="0 0 28 28" fill="none" xmlns="http://www.w3.org/2000/svg">
<path fill-rule="evenodd" clip-rule="evenodd" d="M13.9997 12.7516L20.6718 6.07825C20.8422 5.90792 21.0673 5.82275 21.2913 5.82275C21.7627 5.82275 22.1663 6.20075 22.1663 6.69659C22.1663 6.92175 22.0812 7.14575 21.9108 7.31725L15.2375 13.9894L21.9097 20.6616C22.0812 20.8331 22.1663 21.0571 22.1663 21.2811C22.1663 21.7793 21.7592 22.1561 21.2913 22.1561C21.0673 22.1561 20.8422 22.0709 20.6718 21.9006L13.9997 15.2284L7.32751 21.9006C7.15717 22.0709 6.93201 22.1561 6.70801 22.1561C6.24017 22.1561 5.83301 21.7793 5.83301 21.2811C5.83301 21.0571 5.91817 20.8331 6.08967 20.6616L12.7618 13.9894L6.08851 7.31725C5.91817 7.14575 5.83301 6.92175 5.83301 6.69659C5.83301 6.20075 6.23667 5.82275 6.70801 5.82275C6.93201 5.82275 7.15717 5.90792 7.32751 6.07825L13.9997 12.7516Z" fill="#434343"/>
</svg>
