<svg width="28" height="28" viewBox="0 0 28 28" fill="none" xmlns="http://www.w3.org/2000/svg">
<g clip-path="url(#clip0_101_9)">
<path fill-rule="evenodd" clip-rule="evenodd" d="M9.63685 1.50383L7.81218 2.4045C1.05368 5.92783 11.0765 26.8392 18.6738 26.8392C19.2105 26.8392 19.7285 26.7295 20.2103 26.5078L22.0093 25.627L18.6283 19.1007L16.8317 19.9803C16.6205 20.0818 16.3837 20.1367 16.1352 20.1367C13.1473 20.1367 8.15402 10.5653 11.1873 8.94133L12.991 8.05117L9.63685 1.50383ZM18.6738 28C12.0472 28 4.41602 15.0337 4.41602 7.196C4.41602 4.37383 5.38785 2.359 7.28252 1.372L10.0615 0L14.5613 8.5715L11.7182 9.97267C10.0393 10.8733 14.5287 19.8007 16.3335 18.9327L19.1323 17.5572L23.5843 26.1438C23.5843 26.1438 20.831 27.4995 20.6957 27.5613C20.0575 27.8542 19.3785 28 18.6738 28Z" fill="#434343"/>
</g>
<defs>
<clipPath id="clip0_101_9">
<rect width="28" height="28" fill="white"/>
</clipPath>
</defs>
</svg>
