<svg width="28" height="28" viewBox="0 0 28 28" fill="none" xmlns="http://www.w3.org/2000/svg">
<g clip-path="url(#clip0_101_17)">
<path fill-rule="evenodd" clip-rule="evenodd" d="M13.9996 0C8.06943 0 4.12376 5.77383 9.64443 15.9577C11.5064 19.3935 7.63193 20.2055 3.70609 21.112C0.120927 21.9392 -0.0120731 23.7195 -0.000406465 26.8333L0.0042602 28H27.9926L27.9973 26.8695C28.0113 23.7335 27.8888 21.9427 24.2908 21.112C20.2798 20.1857 16.5453 19.3737 18.3524 15.9577C23.8579 5.56033 19.8119 0 13.9996 0ZM13.9996 1.16667C16.2046 1.16667 17.9546 2.058 18.9288 3.675C20.5084 6.30117 19.9391 10.4697 17.3223 15.4117C16.6491 16.6857 16.5371 17.836 16.9921 18.8323C18.0853 21.2228 22.5431 21.903 24.0294 22.2483C26.7163 22.8713 26.8434 23.7802 26.8306 26.8333H1.16626C1.15459 23.7825 1.27126 22.8713 3.96743 22.2483C5.31726 21.938 9.96176 21.1762 11.0246 18.8183C11.4761 17.8173 11.3559 16.6682 10.6699 15.4012C8.06709 10.6003 7.46859 6.34317 9.03076 3.7205C10.0108 2.07317 11.7759 1.16667 13.9996 1.16667Z" fill="#434343"/>
</g>
<defs>
<clipPath id="clip0_101_17">
<rect width="28" height="28" fill="white"/>
</clipPath>
</defs>
</svg>
